<?xml version="1.0" standalone="no"?>
<!DOCTYPE svg PUBLIC "-//W3C//DTD SVG 20010904//EN"
 "http://www.w3.org/TR/2001/REC-SVG-20010904/DTD/svg10.dtd">
<svg version="1.0" xmlns="http://www.w3.org/2000/svg"
 width="199.000000pt" height="251.000000pt" viewBox="0 0 199.000000 251.000000"
 preserveAspectRatio="xMidYMid meet">

<g transform="translate(0.000000,251.000000) scale(0.100000,-0.100000)"
fill="#000000" stroke="none">
<path d="M885 2438 c-16 -6 -193 -105 -392 -221 -413 -238 -437 -257 -474
-377 -19 -64 -20 -88 -17 -501 l3 -434 26 -56 c15 -32 44 -74 66 -95 44 -45
721 -439 798 -466 185 -64 371 57 405 265 8 54 2 134 -16 182 -4 13 11 4 42
-26 63 -59 89 -74 159 -94 97 -29 163 -18 270 44 106 62 153 104 191 175 l29
51 3 461 c3 452 2 462 -19 519 -37 100 -78 131 -457 349 -189 109 -362 206
-385 217 -48 21 -181 25 -232 7z m-26 -750 c40 -26 110 -60 155 -75 70 -23 98
-27 206 -27 117 -1 169 7 254 40 9 3 -22 -32 -68 -78 -144 -144 -201 -281
-201 -478 1 -77 6 -133 17 -170 9 -30 20 -66 24 -80 5 -18 -5 -10 -35 28 -84
105 -215 186 -363 224 -104 26 -259 22 -358 -10 -35 -12 -65 -20 -67 -18 -2 1
18 18 43 37 98 73 189 218 225 357 32 127 21 301 -26 417 -5 11 21 -11 56 -49
35 -38 97 -91 138 -118z"/>
</g>
</svg>
